{"title":"Despicable Me 2 2013 720p HDCAM XViD UNiQUE ","uid":8668346,"size":2886774873,"categoryP":"video","categoryS":"hd___movies","magnet":"?xt=urn:btih:1e06d0323614cb911e8c632c154acf1ad549a461&amp;dn=Despicable+Me+2+2013+720p+HDCAM+XViD+UNiQUE+&amp;tr=udp%3A%2F%2Ftracker.openbittorrent.com%3A80&amp;tr=udp%3A%2F%2Fopen.demonii.com%3A1337&amp;tr=udp%3A%2F%2Ftracker.coppersurfer.tk%3A6969&amp;tr=udp%3A%2F%2Fexodus.desync.com%3A6969","seeders":2,"leechers":0,"uploader":"srkfan","files":3,"time":1373449624,"description":" &lt;a href=&quot;http://cdn.dindindara.com/wp-content/uploads/2013/05/Despicable-Me-2.jpg&quot; rel=&quot;nofollow&quot; target=&quot;_NEW&quot;&gt;http://cdn.dindindara.com/wp-content/uploads/2013/05/Despicable-Me-2.jpg&lt;/a&gt;\n\nFormat                                   : AVI\nFormat/Info                              : Audio Video Interleave\nFormat profile                           : OpenDML\nFile size                                : 2.66 GiB\nDuration                                 : 1h 33mn\nOverall bit rate                         : 4 063 Kbps\nWriting application                      : VirtualDubMod 1.5.10.2 (build 2540/release)\nWriting library                          : VirtualDubMod build 2540/release\n\nVideo\nID                                       : 0\nFormat                                   : MPEG-4 Visual\nFormat profile                           : Advanced Simple@L5\nFormat settings, BVOP                    : 2\nFormat settings, QPel                    : No\nFormat settings, GMC                     : No warppoints\nFormat settings, Matrix                  : Default (H.263)\nMuxing mode                              : Packed bitstream\nCodec ID                                 : XVID\nCodec ID/Hint                            : XviD\nDuration                                 : 1h 33mn\nBit rate                                 : 3 926 Kbps\nWidth                                    : 1 280 pixels\nHeight                                   : 694 pixels\nDisplay aspect ratio                     : 1.85:1\nFrame rate                               : 20.000 fps\nColor space                              : YUV\nChroma subsampling                       : 4:2:0\nBit depth                                : 8 bits\nScan type                                : Progressive\nCompression mode                         : Lossy\nBits/(Pixel*Frame)                       : 0.221\nStream size                              : 2.57 GiB (97%)\nWriting library                          : XviD 64\n\nAudio\nID                                       : 1\nFormat                                   : MPEG Audio\nFormat version                           : Version 1\nFormat profile                           : Layer 3\nCodec ID                                 : 55\nCodec ID/Hint                            : MP3\nDuration                                 : 1h 33mn\nBit rate mode                            : Constant\nBit rate                                 : 128 Kbps\nChannel(s)                               : 2 channels\nSampling rate                            : 44.1 KHz\nCompression mode                         : Lossy\nStream size                              : 85.9 MiB (3%)\nAlignment                                : Split accross interleaves\nInterleave, duration                     : 50 ms (1.00 video frame)\nInterleave, preload duration             : 500 ms\n\nSource Used          1080p Troublemaker/Voice             - Thanks\n\n &lt;a href=&quot;\nhttp://www.imdb.com/title/tt1690953&quot; rel=&quot;nofollow&quot; target=&quot;_NEW&quot;&gt;\nhttp://www.imdb.com/title/tt1690953&lt;/a&gt;\n\nReally nice cam not alot done just cropped,added saturation and slight sharpen ............Shame no line for this but will add once available \n\n &lt;a href=&quot;\nhttp://i.imgur.com/5eBdZT0.jpg&quot; rel=&quot;nofollow&quot; target=&quot;_NEW&quot;&gt;\nhttp://i.imgur.com/5eBdZT0.jpg&lt;/a&gt; &lt;a href=&quot;\nhttp://i.imgur.com/axDd7Ej.jpg&quot; rel=&quot;nofollow&quot; target=&quot;_NEW&quot;&gt;\nhttp://i.imgur.com/axDd7Ej.jpg&lt;/a&gt; &lt;a href=&quot;\nhttp://i.imgur.com/LkJXI2d.jpg&quot; rel=&quot;nofollow&quot; target=&quot;_NEW&quot;&gt;\nhttp://i.imgur.com/LkJXI2d.jpg&lt;/a&gt; &lt;a href=&quot;\nhttp://i.imgur.com/jzV2k4F.jpg&quot; rel=&quot;nofollow&quot; target=&quot;_NEW&quot;&gt;\nhttp://i.imgur.com/jzV2k4F.jpg&lt;/a&gt;","torrent":{"xt":"urn:btih:1e06d0323614cb911e8c632c154acf1ad549a461","amp;dn":"Despicable+Me+2+2013+720p+HDCAM+XViD+UNiQUE+","amp;tr":["udp%3A%2F%2Ftracker.openbittorrent.com%3A80","udp%3A%2F%2Fopen.demonii.com%3A1337","udp%3A%2F%2Ftracker.coppersurfer.tk%3A6969","udp%3A%2F%2Fexodus.desync.com%3A6969"],"infoHash":"1e06d0323614cb911e8c632c154acf1ad549a461","infoHashBuffer":{"type":"Buffer","data":[30,6,208,50,54,20,203,145,30,140,99,44,21,74,207,26,213,73,164,97]},"announce":[],"urlList":[]}}